<svg xmlns="http://www.w3.org/2000/svg" width="96" height="102" viewBox="0 0 96 102" fill="none"><path d="M55.2426 4.20251L62.2507 8.9512C63.8105 10.0218 65.5905 10.7295 67.4596 11.0222L74.5303 12.0951C80.6118 13.0185 85.5368 18.5293 86.783 25.8062L87.1029 27.665C87.5996 30.6814 88.8186 33.5328 90.6561 35.976V35.976C95.7933 42.6642 95.7933 53.0402 90.6561 59.7284C88.8181 62.1712 87.599 65.0228 87.1029 68.0393L86.783 69.8952C85.5308 77.1751 80.6058 82.6829 74.5303 83.6063L67.4596 84.6822C65.5905 84.9749 63.8105 85.6825 62.2507 86.7532L55.2426 91.5049C53.1954 92.9415 50.7552 93.7123 48.2541 93.7123C45.7531 93.7123 43.3127 92.9415 41.2655 91.5049L34.2576 86.7592C32.6978 85.6885 30.9178 84.9808 29.0487 84.6881L21.978 83.6123C15.8965 82.6889 10.9745 77.1811 9.72527 69.9012L9.40541 68.0453C8.90899 65.0294 7.69101 62.1781 5.85513 59.7344V59.7344C0.714955 53.0462 0.714955 42.6702 5.85513 35.982C7.69049 33.5379 8.90842 30.6868 9.40541 27.671L9.72527 25.8122C10.9804 18.5352 15.9024 13.0245 21.978 12.101L29.0487 11.0282C30.9178 10.7355 32.6978 10.0278 34.2576 8.95717L41.2655 4.20849C43.3126 2.77218 45.7524 2.00107 48.2531 2C50.7539 1.99893 53.1943 2.76794 55.2426 4.20251V4.20251Z" fill="#F7EEFA" stroke="#161511" stroke-width="2.13869" stroke-miterlimit="10"></path><path d="M33.0655 82.0303L33.0655 82.0291C33.0632 80.2087 32.6495 78.4124 31.8554 76.7744C31.0613 75.1364 29.9073 73.699 28.4797 72.5696L28.4791 72.5691C24.6276 69.527 21.5326 65.6345 19.4366 61.1965C17.3405 56.7585 16.3003 51.8956 16.3974 46.9885L16.3974 46.987C16.7043 30.1839 30.2091 16.3912 47.0005 15.749L47.0016 15.7489C53.7293 15.4837 60.3682 17.3565 65.9655 21.0986C71.5628 24.8407 75.8307 30.2597 78.157 36.5781C80.4833 42.8964 80.7484 49.7893 78.9141 56.2676C77.0798 62.7459 73.2404 68.4766 67.9469 72.6374L67.942 72.6413C66.5304 73.7661 65.3921 75.1962 64.6126 76.8241C63.8336 78.4514 63.4333 80.234 63.4419 82.0381V85.7742C63.3889 89.7664 61.7663 93.5773 58.925 96.3823C56.0822 99.1887 52.2483 100.762 48.2537 100.762C44.259 100.762 40.4252 99.1887 37.5824 96.3823C34.7411 93.5774 33.1185 89.7666 33.0655 85.7745V82.0303Z" fill="#F0EF5D" stroke="#161511" stroke-width="1.91711" stroke-miterlimit="10"></path><path d="M42.3531 85.7812V51.6553C42.351 50.883 42.0427 50.1431 41.4959 49.5977C40.949 49.0523 40.2082 48.7461 39.4358 48.7461H38.0964C37.3985 48.7468 36.7294 49.0246 36.2361 49.5183C35.7429 50.0121 35.4658 50.6815 35.4658 51.3794V51.3794C35.4658 52.0771 35.7429 52.7462 36.2363 53.2395C36.7296 53.7329 37.3987 54.01 38.0964 54.01H58.3887C59.0864 54.01 59.7555 53.7329 60.2489 53.2395C60.7422 52.7462 61.0193 52.0771 61.0193 51.3794V51.3794C61.0197 51.0337 60.9519 50.6914 60.8198 50.3719C60.6878 50.0524 60.4941 49.7621 60.2498 49.5175C60.0055 49.273 59.7154 49.079 59.396 48.9466C59.0767 48.8142 58.7344 48.7461 58.3887 48.7461H57.0493C56.2758 48.7468 55.5342 49.0544 54.9873 49.6013C54.4404 50.1483 54.1327 50.8899 54.132 51.6634V85.7812" stroke="#161511" stroke-width="1.91711" stroke-miterlimit="10"></path><path d="M33.1074 86.6719H63.3974" stroke="#161511" stroke-width="1.91711" stroke-miterlimit="10"></path><path d="M35.1074 93.1562H61.3974" stroke="#161511" stroke-width="1.91711" stroke-miterlimit="10"></path></svg>