<svg xmlns="http://www.w3.org/2000/svg" width="167" height="161" viewBox="0 0 167 161" fill="none"><path d="M112.79 19.145C115.125 23.8785 118.577 27.9727 122.848 31.0745C127.118 34.1764 132.079 36.1926 137.303 36.9492C163.998 40.8309 174.662 73.6403 155.343 92.4822C151.562 96.1655 148.734 100.713 147.103 105.734C145.472 110.754 145.087 116.095 145.981 121.298V121.298C150.541 147.886 122.629 168.164 98.7497 155.61C94.0793 153.154 88.8814 151.87 83.6044 151.87C78.3273 151.87 73.1294 153.154 68.459 155.61V155.61C44.5742 168.164 16.6673 147.886 21.2278 121.298C22.1219 116.095 21.7369 110.754 20.1059 105.734C18.4749 100.713 15.6467 96.1655 11.8657 92.4822V92.4822C-7.45303 73.6515 3.20491 40.8421 29.9056 36.9492C35.1283 36.1917 40.0882 34.1751 44.3578 31.0733C48.6273 27.9716 52.0783 23.8778 54.413 19.145V19.145C66.3554 -5.04833 100.853 -5.04833 112.79 19.145Z" fill="#CDE8DF" stroke="#161511" stroke-width="2" stroke-miterlimit="10"></path><path d="M83.4999 136C111.942 136 135 112.942 135 84.4999C135 56.0573 111.942 33 83.4999 33C55.0573 33 32 56.0573 32 84.4999C32 112.942 55.0573 136 83.4999 136Z" fill="#EADAEF" stroke="#161511" stroke-width="2" stroke-miterlimit="10"></path><path opacity="0.948916" d="M73.0739 81L68.356 66.5761H70.3097L74.0508 78.3397H73.4896L77.1683 66.5761H78.5816L82.2604 78.3397H81.72L85.4611 66.5761H87.3939L82.6968 81H81.3043L77.6048 69.2572H78.1452L74.4665 81H73.0739ZM89.2737 81V66.5761H91.2274V81H89.2737ZM90.6039 81V79.2126H98.8758V81H90.6039ZM90.6039 74.4739V72.7696H98.19V74.4739H90.6039ZM90.6039 68.3635V66.5761H98.7719V68.3635H90.6039ZM59.7503 102V87.5761H61.7039V102H59.7503ZM61.0804 102V100.213H68.812V102H61.0804ZM76.0075 102.208C74.9822 102.208 74.0262 102.021 73.1394 101.647C72.2526 101.259 71.4767 100.725 70.8116 100.046C70.1465 99.3535 69.6269 98.5568 69.2528 97.6562C68.8926 96.7556 68.7124 95.7926 68.7124 94.7673C68.7124 93.7281 68.8926 92.7651 69.2528 91.8783C69.6269 90.9777 70.1396 90.1879 70.7908 89.509C71.4559 88.83 72.2249 88.3035 73.0978 87.9294C73.9846 87.5553 74.9406 87.3682 75.966 87.3682C76.9913 87.3682 77.9404 87.5553 78.8133 87.9294C79.7001 88.3035 80.476 88.83 81.1411 89.509C81.8062 90.1879 82.3258 90.9777 82.6999 91.8783C83.074 92.7789 83.2611 93.7489 83.2611 94.788C83.2611 95.8134 83.074 96.7764 82.6999 97.677C82.3258 98.5776 81.8062 99.3674 81.1411 100.046C80.4899 100.725 79.7209 101.259 78.8341 101.647C77.9612 102.021 77.019 102.208 76.0075 102.208ZM75.966 100.337C77.0052 100.337 77.9127 100.102 78.6886 99.6307C79.4784 99.1457 80.1019 98.4875 80.5592 97.6562C81.0164 96.811 81.245 95.848 81.245 94.7673C81.245 93.9636 81.1134 93.2293 80.8502 92.5642C80.5869 91.8852 80.2197 91.2964 79.7486 90.7976C79.2775 90.2988 78.7233 89.9177 78.0859 89.6545C77.4485 89.3773 76.7419 89.2388 75.966 89.2388C74.9406 89.2388 74.0331 89.4743 73.2433 89.9454C72.4674 90.4165 71.8508 91.0677 71.3936 91.8991C70.9502 92.7304 70.7285 93.6865 70.7285 94.7673C70.7285 95.5709 70.8532 96.3191 71.1026 97.0119C71.3658 97.6908 71.7261 98.2797 72.1833 98.7785C72.6544 99.2635 73.2087 99.6445 73.846 99.9216C74.4973 100.199 75.2039 100.337 75.966 100.337ZM89.3275 102L83.5496 87.5761H85.6695L90.429 99.7761H89.66L94.4611 87.5761H96.5602L90.7408 102H89.3275ZM98.3991 102V87.5761H100.353V102H98.3991ZM99.7293 102V100.213H108.001V102H99.7293ZM99.7293 95.4739V93.7696H107.315V95.4739H99.7293ZM99.7293 89.3635V87.5761H107.897V89.3635H99.7293Z" fill="#161511"></path></svg>