<svg xmlns="http://www.w3.org/2000/svg" width="89" height="95" viewBox="0 0 89 95" fill="none"><path d="M42.392 93.3367C65.2521 93.3367 83.7839 74.8049 83.7839 51.9447C83.7839 29.0846 65.2521 10.5527 42.392 10.5527C19.5318 10.5527 1 29.0846 1 51.9447C1 74.8049 19.5318 93.3367 42.392 93.3367Z" fill="#F0EF5D" stroke="#161511" stroke-width="2" stroke-miterlimit="10" stroke-linejoin="round"></path><path d="M73.1991 32.5563C57.9727 41.1374 42.3916 31.2049 42.3916 31.2049C42.3916 31.2049 43.1382 12.0765 57.1923 4.15421C71.0606 -3.66 87.9998 5.50556 87.9998 5.50556C87.9998 5.50556 87.4592 24.5225 73.1991 32.5563Z" fill="#75AF70" stroke="#161511" stroke-width="2" stroke-miterlimit="10" stroke-linejoin="round"></path><path d="M88.0001 5.50813L42.3919 31.2075C42.3919 31.2075 44.4932 11.7446 31.5811 4.66016" stroke="#161511" stroke-width="2" stroke-miterlimit="10" stroke-linejoin="round"></path></svg>