<svg xmlns="http://www.w3.org/2000/svg" width="167" height="161" viewBox="0 0 167 161" fill="none"><path d="M112.79 19.145C115.125 23.8785 118.577 27.9727 122.848 31.0745C127.118 34.1764 132.079 36.1926 137.303 36.9492C163.998 40.8309 174.662 73.6403 155.343 92.4822C151.562 96.1655 148.734 100.713 147.103 105.734C145.472 110.754 145.087 116.095 145.981 121.298V121.298C150.541 147.886 122.629 168.164 98.7497 155.61C94.0793 153.154 88.8814 151.87 83.6044 151.87C78.3273 151.87 73.1294 153.154 68.459 155.61V155.61C44.5742 168.164 16.6673 147.886 21.2278 121.298C22.1219 116.095 21.7369 110.754 20.1059 105.734C18.4749 100.713 15.6467 96.1655 11.8657 92.4822V92.4822C-7.45303 73.6515 3.20491 40.8421 29.9056 36.9492C35.1283 36.1917 40.0882 34.1751 44.3578 31.0733C48.6273 27.9716 52.0783 23.8778 54.413 19.145V19.145C66.3554 -5.04833 100.853 -5.04833 112.79 19.145Z" fill="#CDE8DF" stroke="#161511" stroke-width="2" stroke-miterlimit="10"></path><path d="M83.4999 136C111.942 136 135 112.942 135 84.4999C135 56.0573 111.942 33 83.4999 33C55.0573 33 32 56.0573 32 84.4999C32 112.942 55.0573 136 83.4999 136Z" fill="#F0EF5D" stroke="#161511" stroke-width="2" stroke-miterlimit="10"></path><path opacity="0.948916" d="M73.0739 81L68.356 66.5761H70.3097L74.0508 78.3397H73.4896L77.1683 66.5761H78.5816L82.2604 78.3397H81.72L85.4611 66.5761H87.3939L82.6968 81H81.3043L77.6048 69.2572H78.1452L74.4665 81H73.0739ZM89.2737 81V66.5761H91.2274V81H89.2737ZM90.6039 81V79.2126H98.8758V81H90.6039ZM90.6039 74.4739V72.7696H98.19V74.4739H90.6039ZM90.6039 68.3635V66.5761H98.7719V68.3635H90.6039ZM62.5514 96.3884V94.6841H66.4796C67.02 94.6841 67.498 94.5733 67.9137 94.3516C68.3432 94.1299 68.6757 93.8181 68.9113 93.4163C69.1607 93.0145 69.2854 92.5365 69.2854 91.9822C69.2854 91.428 69.1607 90.95 68.9113 90.5482C68.6757 90.1463 68.3432 89.8346 67.9137 89.6129C67.498 89.3912 67.02 89.2803 66.4796 89.2803H62.5514V87.5761H66.6043C67.4911 87.5761 68.2808 87.7562 68.9736 88.1165C69.6803 88.4767 70.2345 88.9894 70.6363 89.6545C71.052 90.3057 71.2598 91.0816 71.2598 91.9822C71.2598 92.869 71.052 93.6449 70.6363 94.31C70.2345 94.9612 69.6803 95.4739 68.9736 95.848C68.2808 96.2083 67.4911 96.3884 66.6043 96.3884H62.5514ZM61.2421 102V87.5761H63.1957V102H61.2421ZM73.1643 102V87.5761H75.118V102H73.1643ZM74.4945 102V100.213H82.226V102H74.4945ZM82.5246 102L88.4272 87.5761H89.8405L95.7223 102H93.6024L88.7597 89.7999H89.4872L84.603 102H82.5246ZM85.3304 98.737V97.0327H92.9165V98.737H85.3304ZM99.9169 96.139L94.2429 87.5761H96.5084L101.081 94.5802H100.062L104.656 87.5761H106.879L101.164 96.139H99.9169ZM99.5843 102V94.8504H101.538V102H99.5843Z" fill="#161511"></path></svg>