<svg xmlns="http://www.w3.org/2000/svg" width="105" height="103" viewBox="0 0 105 103" fill="none"><path d="M70.9536 13.0587C72.4193 16.0297 74.5859 18.5994 77.2663 20.5463C79.9468 22.4931 83.0607 23.7586 86.3393 24.2335C103.095 26.6699 109.788 47.2627 97.6621 59.0889C95.2889 61.4008 93.5139 64.2553 92.4901 67.4062C91.4664 70.5571 91.2246 73.9098 91.7858 77.175C94.6482 93.8633 77.129 106.591 62.1412 98.7114C59.2098 97.1695 55.9473 96.3638 52.6352 96.3638C49.323 96.3638 46.0605 97.1695 43.1292 98.7114C28.1378 106.591 10.622 93.8633 13.4844 77.175C14.0456 73.9098 13.804 70.5571 12.7802 67.4062C11.7565 64.2553 9.98141 61.4008 7.60826 59.0889C-4.5172 47.2698 2.17228 26.6769 18.931 24.2335C22.2091 23.7581 25.3222 22.4923 28.002 20.5455C30.6818 18.5987 32.8478 16.0292 34.3132 13.0587C41.8089 -2.12633 63.4614 -2.12633 70.9536 13.0587Z" fill="#F7EEFA" stroke="#161511" stroke-width="1.97281" stroke-miterlimit="10"></path><path d="M52.5681 86.4019C70.4202 86.4019 84.8921 71.93 84.8921 54.0779C84.8921 36.2259 70.4202 21.7539 52.5681 21.7539C34.7161 21.7539 20.2441 36.2259 20.2441 54.0779C20.2441 71.93 34.7161 86.4019 52.5681 86.4019Z" fill="#75AF70" stroke="#161511" stroke-width="1.97281" stroke-miterlimit="10"></path></svg>