<svg xmlns="http://www.w3.org/2000/svg" width="144" height="121" viewBox="0 0 144 121" fill="none"><path d="M82.6111 3.84289L93.3488 9.95706C95.8169 11.3627 98.5274 12.2699 101.332 12.629L112.174 14.01C116.718 14.5912 120.971 16.6061 124.339 19.7733C127.706 22.9405 130.021 27.1019 130.959 31.6764L131.453 34.0697C132.272 38.081 134.154 41.7861 136.894 44.7818C140.689 48.935 142.8 54.4027 142.8 60.0817C142.8 65.7608 140.689 71.2284 136.894 75.3816C134.154 78.3773 132.272 82.0824 131.453 86.0938L130.959 88.487C130.021 93.0615 127.706 97.2229 124.339 100.39C120.971 103.557 116.718 105.572 112.174 106.153L101.332 107.534C98.5274 107.894 95.8169 108.801 93.3488 110.206L82.6111 116.321C79.3372 118.187 75.6495 119.167 71.8994 119.167C68.1494 119.167 64.4618 118.187 61.1879 116.321L50.4381 110.219C47.9695 108.814 45.2594 107.907 42.4552 107.547L31.6131 106.166C27.0686 105.584 22.8155 103.569 19.4472 100.402C16.0789 97.2351 13.7635 93.0739 12.8241 88.4993L12.3341 86.1061C11.5204 82.0936 9.64405 78.3856 6.90909 75.3857C3.11186 71.2334 1 65.7654 1 60.0858C1 54.4062 3.11186 48.9382 6.90909 44.7859C9.64859 41.7902 11.5305 38.0851 12.3501 34.0738L12.8401 31.6805C13.7796 27.1059 16.095 22.9448 19.4633 19.7777C22.8316 16.6106 27.0847 14.5957 31.6291 14.0141L42.4712 12.6331C45.2755 12.2728 47.9856 11.3657 50.4542 9.96117L61.1918 3.84699C64.4649 1.98082 68.1517 1.00072 71.901 1C75.6503 0.999283 79.3374 1.97797 82.6111 3.84289Z" fill="#75AF70" stroke="#161511" stroke-width="1.9191" stroke-miterlimit="10"></path><path d="M81.0572 11.4765L90.5277 16.7607C92.7045 17.9756 95.0952 18.7596 97.5687 19.0699L107.131 20.2635C111.139 20.7658 114.89 22.5072 117.86 25.2445C120.831 27.9817 122.872 31.5782 123.699 35.5318L124.135 37.6002C124.858 41.067 126.518 44.2691 128.934 46.8582C132.282 50.4475 134.143 55.173 134.143 60.0812C134.143 64.9893 132.282 69.7147 128.934 73.3041C126.518 75.8932 124.858 79.0953 124.135 82.5622L123.699 84.6305C122.872 88.5841 120.831 92.1806 117.86 94.9178C114.89 97.6551 111.139 99.3965 107.131 99.8988L97.5687 101.092C95.0952 101.403 92.7045 102.187 90.5277 103.402L81.0572 108.686C78.1696 110.299 74.9171 111.146 71.6096 111.146C68.3021 111.146 65.0497 110.299 62.1622 108.686L52.681 103.412C50.5037 102.198 48.1134 101.414 45.6401 101.103L36.0775 99.9094C32.0694 99.4068 28.3182 97.6654 25.3474 94.9282C22.3766 92.1911 20.3344 88.5948 19.5058 84.6411L19.0737 82.5728C18.356 79.105 16.7011 75.9004 14.2889 73.3077C10.9398 69.7191 9.07715 64.9933 9.07715 60.0847C9.07715 55.1761 10.9398 50.4503 14.2889 46.8617C16.7051 44.2726 18.3649 41.0705 19.0878 37.6037L19.52 35.5353C20.3486 31.5817 22.3908 27.9854 25.3616 25.2482C28.3324 22.5111 32.0836 20.7697 36.0917 20.267L45.6543 19.0735C48.1276 18.7621 50.5179 17.9781 52.6952 16.7643L62.1656 11.4801C65.0525 9.86721 68.3042 9.02015 71.611 9.01953C74.9178 9.01891 78.1698 9.86475 81.0572 11.4765Z" fill="#EADAEF" stroke="#161511" stroke-width="1.9191" stroke-miterlimit="10"></path><path d="M111.326 49.6132C111.326 57.0644 107.036 63.9062 99.9048 68.9243C92.7765 73.9405 82.8782 77.0735 71.8997 77.0735C60.9213 77.0735 51.023 73.9405 43.8947 68.9243C36.7637 63.9062 32.4732 57.0644 32.4732 49.6132C32.4732 42.162 36.7637 35.3202 43.8947 30.3021C51.023 25.2859 60.9213 22.1529 71.8997 22.1529C82.8782 22.1529 92.7765 25.2859 99.9048 30.3021C107.036 35.3202 111.326 42.162 111.326 49.6132Z" fill="#F0EF5D" stroke="#161511" stroke-width="1.9191"></path><circle cx="56.7954" cy="37.5756" r="3.2768" fill="#161511"></circle><circle cx="87.6498" cy="37.5756" r="3.2768" fill="#161511"></circle><path d="M47.3994 47.002C54.6543 51.5297 74.8112 57.8685 97.3994 47.002" stroke="#161511" stroke-width="1.9191"></path></svg>