<svg xmlns="http://www.w3.org/2000/svg" width="166" height="161" viewBox="0 0 166 161" fill="none"><path d="M111.79 19.145C114.125 23.8785 117.577 27.9727 121.848 31.0745C126.118 34.1764 131.079 36.1926 136.303 36.9492C162.998 40.8309 173.662 73.6403 154.343 92.4822C150.562 96.1655 147.734 100.713 146.103 105.734C144.472 110.754 144.087 116.095 144.981 121.298V121.298C149.541 147.886 121.629 168.164 97.7497 155.61C93.0793 153.154 87.8814 151.87 82.6044 151.87C77.3273 151.87 72.1294 153.154 67.459 155.61V155.61C43.5742 168.164 15.6673 147.886 20.2278 121.298C21.1219 116.095 20.7369 110.754 19.1059 105.734C17.4749 100.713 14.6467 96.1655 10.8657 92.4822V92.4822C-8.45303 73.6515 2.20491 40.8421 28.9056 36.9492C34.1283 36.1917 39.0882 34.1751 43.3578 31.0733C47.6273 27.9716 51.0783 23.8778 53.413 19.145V19.145C65.3554 -5.04833 99.8531 -5.04833 111.79 19.145Z" fill="#EADAEF" stroke="#161511" stroke-width="2" stroke-miterlimit="10"></path><path d="M82.4999 136C110.942 136 134 112.942 134 84.4999C134 56.0573 110.942 33 82.4999 33C54.0573 33 31 56.0573 31 84.4999C31 112.942 54.0573 136 82.4999 136Z" fill="#F0EF5D" stroke="#161511" stroke-width="2" stroke-miterlimit="10"></path><path opacity="0.948916" d="M72.0739 81L67.356 66.5761H69.3097L73.0508 78.3397H72.4896L76.1683 66.5761H77.5816L81.2604 78.3397H80.72L84.4611 66.5761H86.3939L81.6968 81H80.3043L76.6048 69.2572H77.1452L73.4665 81H72.0739ZM88.2737 81V66.5761H90.2274V81H88.2737ZM89.6039 81V79.2126H97.8758V81H89.6039ZM89.6039 74.4739V72.7696H97.19V74.4739H89.6039ZM89.6039 68.3635V66.5761H97.7719V68.3635H89.6039ZM64.8709 102.208C63.8317 102.208 62.8688 102.021 61.982 101.647C61.0952 101.259 60.3193 100.725 59.6542 100.046C59.003 99.3674 58.4972 98.5776 58.137 97.677C57.7767 96.7764 57.5966 95.8134 57.5966 94.788C57.5966 93.7489 57.7767 92.7789 58.137 91.8783C58.4972 90.9777 59.003 90.1948 59.6542 89.5298C60.3193 88.8508 61.0883 88.3243 61.9612 87.9502C62.848 87.5622 63.8109 87.3682 64.8501 87.3682C65.9863 87.3682 66.9839 87.5622 67.843 87.9502C68.7021 88.3382 69.4641 88.8647 70.1292 89.5298L68.7783 90.8807C68.321 90.368 67.7599 89.9662 67.0948 89.6752C66.4436 89.3843 65.6953 89.2388 64.8501 89.2388C64.0881 89.2388 63.3883 89.3773 62.751 89.6545C62.1136 89.9177 61.5594 90.2988 61.0883 90.7976C60.6172 91.2964 60.25 91.8852 59.9867 92.5642C59.7373 93.2431 59.6126 93.9844 59.6126 94.788C59.6126 95.5917 59.7373 96.333 59.9867 97.0119C60.25 97.6908 60.6172 98.2797 61.0883 98.7785C61.5594 99.2773 62.1136 99.6653 62.751 99.9424C63.3883 100.206 64.0881 100.337 64.8501 100.337C65.7508 100.337 66.5336 100.192 67.1987 99.9008C67.8638 99.596 68.4249 99.1873 68.8822 98.6746L70.2331 100.005C69.568 100.698 68.7852 101.238 67.8846 101.626C66.9978 102.014 65.9932 102.208 64.8709 102.208ZM70.6883 102L76.5908 87.5761H78.0041L83.8859 102H81.766L76.9234 89.7999H77.6508L72.7666 102H70.6883ZM73.4941 98.737V97.0327H81.0801V98.737H73.4941ZM86.8471 95.7233V94.0814H90.7545C91.5997 94.0814 92.2509 93.8666 92.7081 93.4371C93.1654 93.0076 93.394 92.4256 93.394 91.6913C93.394 90.9985 93.1654 90.4235 92.7081 89.9662C92.2648 89.509 91.6205 89.2803 90.7753 89.2803H86.8471V87.5761H90.8376C91.7521 87.5761 92.5488 87.7562 93.2277 88.1165C93.9067 88.4629 94.4263 88.9409 94.7865 89.5505C95.1606 90.1602 95.3477 90.8599 95.3477 91.6497C95.3477 92.4672 95.1606 93.1808 94.7865 93.7904C94.4263 94.4001 93.9067 94.8781 93.2277 95.2245C92.5488 95.557 91.7521 95.7233 90.8376 95.7233H86.8471ZM85.5378 102V87.5761H87.4914V102H85.5378ZM93.8513 102L88.6137 95.5363L90.4635 94.892L96.3245 102H93.8513ZM97.8253 102V87.5761H99.779V102H97.8253ZM99.1555 102V100.213H107.427V102H99.1555ZM99.1555 95.4739V93.7696H106.742V95.4739H99.1555ZM99.1555 89.3635V87.5761H107.324V89.3635H99.1555Z" fill="#161511"></path></svg>