<svg xmlns="http://www.w3.org/2000/svg" width="120" height="116" viewBox="0 0 120 116" fill="none"><path d="M89.8018 43.1678V96.2132C89.8018 100.955 87.9182 105.502 84.5654 108.855C81.2126 112.208 76.6651 114.091 71.9235 114.091H18.8782C14.1366 114.091 9.58916 112.208 6.23634 108.855C2.88352 105.502 1.00001 100.955 1.00001 96.2132V43.1678C0.996812 40.5383 1.57526 37.9405 2.69401 35.5608C3.81276 33.1811 5.44413 31.0782 7.47107 29.4031L7.56185 29.327C10.7511 26.7083 14.7516 25.2801 18.8782 25.2871H71.9235C74.2715 25.2871 76.5966 25.7497 78.7658 26.6483C80.9351 27.5469 82.906 28.864 84.5662 30.5244C86.2264 32.1848 87.5432 34.156 88.4415 36.3254C89.3399 38.4948 89.8021 40.8198 89.8018 43.1678Z" fill="#EADAEF" stroke="#161511" stroke-width="2" stroke-miterlimit="10"></path><path d="M118.23 18.8807V71.926C118.233 74.5824 117.643 77.2059 116.502 79.6048C115.361 82.0037 113.699 84.1174 111.636 85.7915L111.597 85.8258L83.8024 109.571C85.6906 107.896 87.2016 105.838 88.2354 103.535C89.2692 101.232 89.8023 98.7359 89.7994 96.2114V43.1661C89.7997 40.8181 89.3376 38.4931 88.4393 36.3237C87.5409 34.1543 86.2241 32.1831 84.5639 30.5227C82.9038 28.8623 80.9327 27.5452 78.7634 26.6466C76.5942 25.748 74.2692 25.2854 71.9212 25.2854H18.8759C14.7494 25.2784 10.7488 26.7066 7.55957 29.3253L35.5287 5.42784L35.5532 5.40817C38.8057 2.56021 42.9836 0.993321 47.3067 1.00002H100.352C102.7 1.00002 105.025 1.46253 107.194 2.36114C109.363 3.25976 111.335 4.5769 112.995 6.23731C114.655 7.89771 115.972 9.86887 116.87 12.0382C117.768 14.2076 118.231 16.5327 118.23 18.8807Z" fill="#75AF70" stroke="#161511" stroke-width="2" stroke-miterlimit="10"></path><path d="M45.2305 105.675C65.3889 105.675 81.7305 89.5152 81.7305 69.5808C81.7305 49.6464 65.3889 33.4863 45.2305 33.4863C25.0721 33.4863 8.73047 49.6464 8.73047 69.5808C8.73047 89.5152 25.0721 105.675 45.2305 105.675Z" fill="#F0EF5D" stroke="#161511" stroke-width="2" stroke-miterlimit="10"></path><circle cx="30.8361" cy="55.1251" r="2.98254" fill="#161511"></circle><circle cx="58.92" cy="55.1251" r="2.98254" fill="#161511"></circle><path d="M21.708 64.3086C28.4164 68.5932 47.0548 74.5916 67.9413 64.3086" stroke="#161511" stroke-width="2"></path></svg>